<svg width="80" height="161" viewBox="0 0 80 161" fill="none" xmlns="http://www.w3.org/2000/svg">
<rect x="2.58789" y="157.502" width="137.952" height="74.9121" rx="37.4561" transform="rotate(-90 2.58789 157.502)" fill="#FAF6FF" stroke="#57309B" stroke-width="5"/>
<rect x="7.49219" y="145.605" width="138.476" height="64.4697" rx="32.2348" transform="rotate(-90 7.49219 145.605)" fill="#FAF6FF" stroke="#57309B" stroke-width="5"/>
<rect x="-0.47449" y="3.41791" width="77.4927" height="30.9984" rx="15.4992" transform="matrix(-0.621905 -0.783093 0.811701 -0.584073 53.9667 162.024)" fill="#FAF6FF" stroke="#57309B" stroke-width="5"/>
<path d="M60.5074 139.996C60.3723 136.802 55.9494 131.464 50.7948 131.494" stroke="#57309B" stroke-width="5" stroke-linecap="round" stroke-linejoin="round"/>
<rect x="2.5" y="133.458" width="130.958" height="74.9121" rx="37.4561" transform="rotate(-90 2.5 133.458)" fill="#FAF6FF" stroke="#57309B" stroke-width="5"/>
<circle cx="26.2506" cy="94.7509" r="6.25007" transform="rotate(-90 26.2506 94.7509)" fill="#57309B"/>
<circle cx="53.7508" cy="94.7509" r="6.25007" transform="rotate(-90 53.7508 94.7509)" fill="#57309B"/>
<path d="M77.2496 55C73.8485 51.3533 65.1373 44.8475 57.5012 47.9983" stroke="#57309B" stroke-width="5" stroke-linecap="round" stroke-linejoin="round"/>
<path d="M77.2496 39.8379C73.8485 36.1912 65.1373 29.6854 57.5012 32.8362" stroke="#57309B" stroke-width="5" stroke-linecap="round" stroke-linejoin="round"/>
<path d="M77.2496 70.5C73.8485 66.8533 65.1373 60.3475 57.5012 63.4983" stroke="#57309B" stroke-width="5" stroke-linecap="round" stroke-linejoin="round"/>
</svg>
