<svg width="241" height="481" fill="none" xmlns="http://www.w3.org/2000/svg"><g clip-path="url(#clip0)"><path d="M7.791 164.526v203.853c0 57.99 47.01 105 105 105h14.733c57.99 0 105-47.01 105-105V164.526c0-57.99-47.01-105-105-105h-14.733c-57.99 0-105 47.01-105 105z" fill="#fff" stroke="#57309B" stroke-width="10"/><path d="M22.504 118.972v222.015c0 53.408 43.296 96.703 96.704 96.703h0c53.408 0 96.703-43.295 96.703-96.703V118.972c0-53.408-43.295-96.704-96.703-96.704h0c-53.408 0-96.704 43.296-96.704 96.704z" fill="#73FFD3" stroke="#57309B" stroke-width="10"/><path d="M55.476 336.435l86.744 109.227c15.97 20.109 45.814 24.252 66.659 9.254v-.001c20.844-14.998 24.795-43.459 8.825-63.569l-86.745-109.227c-15.97-20.11-45.814-24.253-66.658-9.254h0c-20.845 14.999-24.796 43.46-8.825 63.57z" fill="#FF6708" stroke="#57309B" stroke-width="10"/><path d="M181.55 420.862c-.405-9.58-13.674-25.596-29.137-25.504" stroke="#57309B" stroke-width="10" stroke-linecap="round" stroke-linejoin="round"/><path d="M7.528 120.747v168.134c0 62.059 50.308 112.367 112.366 112.367s112.367-50.308 112.367-112.367V120.747c0-62.059-50.309-112.367-112.367-112.367C57.836 8.38 7.528 58.688 7.528 120.747z" fill="#fff" stroke="#57309B" stroke-width="10"/><path d="M97.528 285.131c0-10.355-8.395-18.75-18.75-18.75-10.356 0-18.75 8.395-18.75 18.75s8.394 18.75 18.75 18.75c10.355 0 18.75-8.395 18.75-18.75zM180.028 285.131c0-10.355-8.395-18.75-18.75-18.75-10.356 0-18.75 8.395-18.75 18.75s8.394 18.75 18.75 18.75c10.355 0 18.75-8.395 18.75-18.75z" fill="#57309B"/><path d="M231.772 165.88c-10.203-10.941-36.336-30.458-59.244-21.005M231.772 120.394c-10.203-10.94-36.336-30.457-59.244-21.005M231.772 212.38c-10.203-10.941-36.336-30.457-59.244-21.006" stroke="#57309B" stroke-width="10" stroke-linecap="round" stroke-linejoin="round"/></g><defs><clipPath id="clip0"><path fill="#fff" transform="translate(.028 .88)" d="M0 0h240v480H0z"/></clipPath></defs></svg>